<svg xmlns="http://www.w3.org/2000/svg" width="898" height="895" version="1.1" class="icon">

    <g>
        <title>Layer 1</title>
        <path id="svg_1"
              d="m785.72896,740.95683c70.998,-81.26074 109.77926,-184.21763 109.77926,-293.14448c0,-119.20494 -46.42126,-231.27743 -130.71304,-315.56921c-82.99525,-82.99627 -192.93108,-129.24255 -310.08327,-130.6455c-1.92484,-0.59966 -10.29036,-0.5925 -12.22748,0.01535c-116.68249,1.71711 -226.12714,47.93064 -308.82665,130.63015c-82.87143,82.87245 -129.1044,192.60158 -130.63936,309.55729c-0.42877,1.64957 -0.43696,8.60191 -0.02149,10.22692c1.08266,117.62802 47.36475,228.05811 130.66085,311.35421c84.29178,84.29178 196.36325,130.71304 315.56921,130.71304c119.20494,0 231.27744,-46.42126 315.56921,-130.71304c6.13984,-6.13983 12.05455,-12.44442 17.78916,-18.87181c0.50756,-0.45332 1.00182,-0.92814 1.47151,-1.44081c0.61706,-0.67232 1.16146,-1.38454 1.67209,-2.11211zm-741.35874,-273.52872l187.50142,0c1.32211,65.67886 9.25376,127.2645 22.50557,182.11269c-61.69001,16.68705 -100.8192,38.37193 -121.07656,51.90618c-52.06787,-64.72616 -84.70111,-145.7055 -88.93043,-234.01887zm88.43412,-272.63538c20.09057,13.55676 59.24227,35.46165 121.34058,52.26025c-12.99803,54.12778 -20.82735,114.77811 -22.24361,179.43265l-187.45229,0c4.55064,-87.36989 36.91167,-167.48862 88.35532,-231.6929zm721.20063,231.69187l-187.45332,0c-1.41524,-64.63099 -9.24046,-125.26086 -22.22929,-179.37432c61.95505,-16.69319 101.23569,-38.44459 121.56673,-52.02079c51.30448,64.15516 83.57138,144.16133 88.11588,231.39511zm-228.40399,0l-156.51059,0l0,-156.03884c52.20908,-1.09494 97.10357,-6.45399 135.27289,-14.03362c12.56006,52.13642 19.846,109.86931 21.2377,170.07246zm-156.51059,-196.98439l0,-184.19717c36.84107,10.39884 72.77958,49.20568 100.92664,110.01565c8.81067,19.03555 16.6451,39.64186 23.46441,61.52117c-35.02674,6.77224 -76.29668,11.60737 -124.39105,12.66035zm-40.94351,-183.84208l0,183.80524c-47.50494,-1.12666 -88.37886,-6.00169 -123.12011,-12.80259c6.80704,-21.81279 14.62305,-42.35976 23.40916,-61.34413c27.83904,-60.13971 63.2966,-98.75621 99.71095,-109.65852zm0,224.76716l0,156.05931l-155.2949,0c1.3917,-60.21338 8.67969,-117.95548 21.24384,-170.09907c37.83572,7.53563 82.31475,12.8865 134.05106,14.03976zm-155.33071,197.00282l155.33071,0l0,158.66772c-51.60942,1.1942 -96.01989,6.56348 -133.82184,14.1032c-12.8251,-52.88651 -20.20825,-111.57107 -21.50887,-172.77092zm155.33071,199.62862l0,182.90984c-36.41537,-10.9023 -71.87191,-49.51881 -99.70993,-109.65954c-8.67968,-18.75208 -16.40974,-39.03401 -23.15742,-60.55107c34.63994,-6.72619 75.41665,-11.55108 122.86735,-12.69923zm40.94351,183.26493l0,-183.32838c47.90403,1.02536 89.10336,5.86252 124.11681,12.65625c-6.75587,21.55595 -14.49718,41.87369 -23.19017,60.65648c-28.14706,60.80997 -64.08557,99.61681 -100.92664,110.01565zm0,-224.277l0,-158.61655l156.54641,0c-1.29858,61.0965 -8.66024,119.68487 -21.44543,172.50282c-38.11407,-7.53256 -82.9492,-12.83533 -135.10098,-13.88627zm197.49195,-158.61655l187.50142,0c-4.22113,88.13838 -36.7326,168.97343 -88.62036,233.63513c-20.46919,-13.6683 -59.63521,-35.29895 -121.30374,-51.86832c13.20065,-54.76121 21.10262,-116.22507 22.42268,-181.76681zm71.85964,-303.3008c-18.32947,11.57053 -52.30937,29.35559 -104.85819,43.49359c-19.29546,-63.05613 -46.11018,-115.00427 -78.06189,-150.97655c70.40142,19.15117 133.23447,56.83749 182.92008,107.48296zm-395.51092,-107.48296c-31.90566,35.92009 -58.6907,87.76897 -77.979,150.7023c-52.40351,-14.24135 -86.37011,-32.09907 -104.58189,-43.58773c49.62932,-50.46025 112.33036,-88.00944 182.56089,-107.11457zm-182.09017,675.70341c18.28443,-11.53573 52.09856,-29.23074 104.3322,-43.336c19.27193,62.60485 45.97613,114.18665 77.75797,149.9686c-70.00847,-19.04476 -132.53555,-56.41385 -182.09017,-106.6326zm394.68101,106.6326c31.80129,-35.80344 58.51776,-87.42617 77.79276,-150.08218c51.98498,14.02338 85.97205,31.63141 104.5338,43.20808c-49.59249,50.3395 -112.20655,87.79967 -182.32656,106.8741z">
            x
        </path>
    </g>
</svg>