<svg width="27.000000000000004" height="22" xmlns="http://www.w3.org/2000/svg">
 <g id="Layer_1">
  <title>Layer 1</title>
  <path transform="rotate(91 13.7427 11.0719)" stroke="null" id="svg_6" d="m24.68669,11.07067l-4.41591,1.57095l0,-3.14024l4.41591,1.56928zm-3.20632,-7.7385l-2.01179,4.23438l-2.22008,-2.22175l4.23187,-2.01263zm-7.73766,-3.20465l1.57012,4.41674l-3.14107,0l1.57095,-4.41674zm-7.7385,3.20465l4.23355,2.01263l-2.22092,2.22175l-2.01263,-4.23438zm-3.20548,7.7385l4.41674,-1.56928l0,3.14024l-4.41674,-1.57095zm3.20548,7.7385l2.01263,-4.23271l2.22092,2.22092l-4.23355,2.01179l0,0zm7.7385,3.20716l-1.57095,-4.41758l3.14107,0l-1.57012,4.41758zm7.73766,-3.20716l-4.23271,-2.01096l2.22008,-2.22092l2.01263,4.23187zm-13.20924,-7.7385l0,0c0,-3.02145 2.45012,-5.47157 5.47241,-5.47157c3.02145,0 5.47241,2.45012 5.47241,5.47157c0,3.02229 -2.45096,5.47241 -5.47241,5.47241c-3.02313,0 -5.47241,-2.45012 -5.47241,-5.47241l0,0z" fill="#000"/>
 </g>
</svg>