<?xml version="1.0"?><svg xmlns:xlink="http://www.w3.org/1999/xlink" width="198.07286" height="198.53038" xmlns="http://www.w3.org/2000/svg" version="1.1"><defs id="defs3115"><linearGradient id="linearGradient4246" x1="0.56" x2="0.56" xlink:href="#linearGradient4099-7" y1="1" y2="0.01"/><linearGradient id="linearGradient4099-7"><stop id="stop4101-8" offset="0" stop-color="#adadad"/><stop id="stop4103-5" offset="1" stop-color="#dbdbdb"/></linearGradient><linearGradient id="linearGradient4248" x1="0.06" x2="0.95" xlink:href="#linearGradient4689-2" y1="0.07" y2="0.96"/><linearGradient id="linearGradient4689-2"><stop id="stop4691-3" offset="0" stop-color="#5a9fd4"/><stop id="stop4693-5" offset="1" stop-color="#306998"/></linearGradient><linearGradient id="linearGradient4250" x1="0.94" x2="0.06" xlink:href="#linearGradient4671-4" y1="0.94" y2="0.06"/><linearGradient id="linearGradient4671-4"><stop id="stop4673-7" offset="0" stop-color="#ffd43b"/><stop id="stop4675-7" offset="1" stop-color="#ffe873"/></linearGradient><linearGradient id="linearGradient4252" x1="0.05" x2="0.95" xlink:href="#linearGradient4689-2" y1="0.05" y2="0.95"/><linearGradient id="linearGradient3111" x1="0.95" x2="0.05" xlink:href="#linearGradient4671-4" y1="0.95" y2="0.05"/></defs><metadata id="metadata3118">image/svg+xml</metadata><g class="layer"><title>第 1</title><g id="layer1" transform="translate(90.465002,-224.52554)"><g fill="#000000" font-family="Sans" font-size="144px" font-style="normal" font-weight="normal" id="g4239" transform="matrix(2.1468605,0,0,2.1468605,-384.12031,-1034.7929)"><rect fill="url(#linearGradient4246)" height="92.47" id="rect4089-6" ry="8.49" width="92.26" x="136.78" y="586.59"/><path d="m178.06,586.77l0,39.16l11.87,11.97l39.1,0l0,-11.97l-39.16,0l0,-39.16l-11.81,0z" fill="url(#linearGradient4248)" id="path3768-4"/><path d="m136.9,627.93l0,11.97l39.16,0l0,39.15l11.81,0l0,-39.15l-11.88,-11.97l-39.09,0z" fill="url(#linearGradient4250)" id="path2990-4"/><path d="m136.9,642.42l0,11.94l24.86,0l0,24.65l11.75,0l0,-36.59l-36.61,0z" fill="url(#linearGradient4252)" id="rect3783-8"/><path d="m229.02,623.4l0,-11.94l-24.86,0l0,-24.65l-11.75,0l0,36.59l36.61,0z" fill="url(#linearGradient3111)" id="path3832-5"/></g></g>层</g></svg>